normalP08_grf.mot
version=1
nRows=22
nColumns=19
inDegrees=yes
endheader
time	1_ground_force_vx	1_ground_force_vy	1_ground_force_vz	1_ground_force_px	1_ground_force_py	1_ground_force_pz	1_ground_torque_x	1_ground_torque_y	1_ground_torque_z	2_ground_force_vx	2_ground_force_vy	2_ground_force_vz	2_ground_force_px	2_ground_force_py	2_ground_force_pz	2_ground_torque_x	2_ground_torque_y	2_ground_torque_z
            1.510000	          -91.627579	          695.758712	           22.576598	            0.181293	            0.003365	           -0.280587	            0.004460	           -0.033868	           -0.001099	            0.027253	            0.415536	           -0.003010	            0.733252	            0.001336	           -0.174780	           -0.013127	           -0.007792	           -0.011092
            1.511000	          -91.613474	          697.593117	           22.667299	            0.181514	            0.003364	           -0.280486	            0.000930	           -0.007080	           -0.000230	           -0.035301	            0.015617	            0.026327	            0.733252	            0.001336	           -0.174780	            0.003499	           -0.000210	            0.093073
            1.512000	          -91.605785	          699.826407	           22.698045	            0.181773	            0.003363	           -0.280580	           -0.000586	            0.004481	            0.000145	           -0.003141	            0.495468	            0.005237	            0.733252	            0.001336	           -0.174780	            0.037400	           -0.000004	            0.092638
            1.513000	          -91.676328	          701.581020	           22.681096	            0.182127	            0.003362	           -0.280458	           -0.003130	            0.023953	            0.000774	            0.004274	            0.414766	           -0.002790	            0.733252	            0.001336	           -0.174780	           -0.046731	           -0.000226	            0.113778
            1.514000	          -91.722869	          703.654264	           22.734077	            0.182533	            0.003361	           -0.280554	           -0.000978	            0.007502	            0.000242	            0.004265	            0.415230	           -0.002897	            0.733252	            0.001336	           -0.174780	           -0.013024	           -0.004943	            0.071906
            1.515000	          -91.746137	          705.807026	           22.726138	            0.182862	            0.003359	           -0.280579	           -0.001453	            0.011178	            0.000360	            0.012661	            0.655438	            0.013455	            0.733252	            0.001336	           -0.174780	            0.037293	            0.000604	            0.051310
            1.516000	          -91.802410	          707.242988	           22.654486	            0.183158	            0.003359	           -0.280657	           -0.001161	            0.008941	            0.000286	            0.002573	           -0.144134	           -0.005155	            0.733252	            0.001336	           -0.174780	           -0.030035	           -0.015868	            0.009656
            1.517000	          -91.849932	          708.996060	           22.522675	            0.183796	            0.003356	           -0.280585	           -0.004337	            0.033478	            0.001063	            0.004751	            0.575088	           -0.002284	            0.733252	            0.001336	           -0.174780	           -0.013085	           -0.004944	            0.072069
            1.518000	          -91.869377	          710.034057	           22.449588	            0.183937	            0.003356	           -0.280562	           -0.004082	            0.031548	            0.000997	           -0.018486	            0.495995	            0.005187	            0.733252	            0.001336	           -0.174780	            0.003758	           -0.000039	           -0.073543
            1.519000	          -91.887707	          711.389819	           22.278054	            0.184187	            0.003355	           -0.280621	           -0.003935	            0.030462	            0.000954	           -0.017982	            0.655837	           -0.017236	            0.733252	            0.001336	           -0.174780	            0.037229	           -0.004924	            0.009795
            1.520000	          -91.944188	          712.744587	           22.190751	            0.184611	            0.003354	           -0.280676	           -0.002066	            0.016014	            0.000499	           -0.018723	            0.415515	           -0.010443	            0.733252	            0.001336	           -0.174780	           -0.013134	            0.000376	            0.030574
            1.521000	          -91.945900	          714.420302	           21.974338	            0.184853	            0.003353	           -0.280624	           -0.000454	            0.003528	            0.000109	            0.057937	            0.415767	            0.004975	            0.733252	            0.001336	           -0.174780	            0.054040	            0.010613	            0.030601
            1.522000	          -91.982364	          714.897121	           21.853345	            0.185394	            0.003351	           -0.280509	            0.000571	           -0.004435	           -0.000136	            0.003786	            0.255834	           -0.026382	            0.733252	            0.001336	           -0.174780	           -0.013102	            0.006126	           -0.011061
            1.523000	          -92.022343	          716.571821	           21.690578	            0.185749	            0.003349	           -0.280550	            0.002517	           -0.019596	           -0.000593	           -0.010791	            0.494990	            0.020777	            0.733252	            0.001336	           -0.174780	           -0.063424	            0.007799	            0.009770
            1.524000	          -91.980585	          717.529117	           21.494705	            0.186016	            0.003348	           -0.280461	            0.002946	           -0.022978	           -0.000688	            0.043133	            0.575647	            0.013252	            0.733252	            0.001336	           -0.174780	            0.054170	           -0.004257	            0.030283
            1.525000	          -91.984013	          718.724525	           21.353183	            0.186294	            0.003348	           -0.280567	            0.007226	           -0.056460	           -0.001677	           -0.005061	           -0.143365	            0.018270	            0.733252	            0.001336	           -0.174780	            0.003490	            0.002465	           -0.114831
            1.526000	          -91.875183	          719.201291	           21.155647	            0.186773	            0.003347	           -0.280777	            0.009060	           -0.070918	           -0.002086	           -0.018436	            0.496656	           -0.025453	            0.733252	            0.001336	           -0.174780	            0.070796	           -0.008378	           -0.073446
            1.527000	          -91.837317	          721.274602	           21.032453	            0.187156	            0.003345	           -0.280684	            0.010960	           -0.086075	           -0.002510	           -0.018431	            0.494411	            0.036098	            0.733252	            0.001336	           -0.174780	           -0.130523	           -0.004030	            0.009595
            1.528000	          -91.755601	          722.710200	           20.868827	            0.187552	            0.003343	           -0.280528	            0.011721	           -0.092324	           -0.002666	           -0.050350	            0.096448	            0.011429	            0.733252	            0.001336	           -0.174780	            0.020265	           -0.000603	           -0.052396
            1.529000	          -91.629117	          723.825904	           20.719446	            0.187784	            0.003342	           -0.280570	            0.013863	           -0.109509	           -0.003135	           -0.019210	            0.256529	           -0.026430	            0.733252	            0.001336	           -0.174780	            0.087442	            0.000055	            0.030745
            1.530000	          -91.525611	          724.941074	           20.524069	            0.188186	            0.003341	           -0.280657	            0.016890	           -0.133780	           -0.003787	            0.010537	           -0.064363	            0.018516	            0.733252	            0.001336	           -0.174780	           -0.047029	           -0.008223	           -0.010658
            1.531000	          -91.428391	          726.455989	           20.383713	            0.188504	            0.003340	           -0.280478	            0.016280	           -0.129353	           -0.003630	            0.004802	            0.574382	           -0.009728	            0.733252	            0.001336	           -0.174780	           -0.080333	           -0.003019	            0.113866
